<svg width="26" height="26" viewBox="0 0 26 26" fill="none" xmlns="http://www.w3.org/2000/svg">
<path d="M12.9978 25.9673C10.4271 25.9673 7.91411 25.2059 5.77663 23.7792C3.63915 22.3525 1.97318 20.3248 0.989406 17.9523C0.00563062 15.5799 -0.251769 12.9693 0.249757 10.4507C0.751283 7.9321 1.98921 5.61863 3.80699 3.80283C6.24455 1.36792 9.5506 -2.5656e-08 12.9978 0C16.4451 2.5656e-08 19.7511 1.36792 22.1887 3.80283C24.6262 6.23774 25.9956 9.54019 25.9956 12.9837C25.9956 16.4272 24.6262 19.7296 22.1887 22.1645C20.9845 23.374 19.5522 24.3328 17.9746 24.9855C16.397 25.6383 14.7054 25.972 12.9978 25.9673ZM12.9978 1.73118C6.78646 1.73118 1.73308 6.77906 1.73308 12.9837C1.73308 19.1883 6.78646 24.2362 12.9978 24.2362C19.2092 24.2362 24.2626 19.1883 24.2626 12.9837C24.2626 6.77906 19.2092 1.73118 12.9978 1.73118Z" fill="white"/>
<path d="M11.4442 19.6546L10.2189 18.4306L15.6717 12.9836L10.2189 7.53656L11.4442 6.31253L18.1226 12.9836L11.4442 19.6546Z" fill="white"/>
</svg>
